<svg width="98" height="81" viewBox="0 0 98 81" fill="none" xmlns="http://www.w3.org/2000/svg">
<path d="M16.957 44.6311C19.8038 41.7296 22.7174 39.1008 25.8267 36.4768C30.4421 32.5817 34.7458 28.3485 39.3636 24.4599C45.6198 19.1915 53.37 15.6463 59.0699 9.79638C61.7163 7.08029 64.7368 4.73438 67.8143 2.53616C69.0272 1.66982 69.4232 2.02474 70.7828 2.85804C74.7865 5.31191 78.7058 7.99396 82.4421 10.8336C85.012 12.7867 86.4178 15.7455 87.932 18.5408C89.2369 20.95 92.0123 23.6427 92.5992 26.2839C93.2904 29.3939 96.1399 32.1089 96.1399 35.4575C96.1399 42.7401 88.9385 46.259 83.9084 50.0316C81.7397 51.6582 79.7914 53.6352 77.4887 55.0744C74.1028 57.1906 70.2037 58.9908 66.5268 60.5464C64.9392 61.2181 63.431 61.5141 61.9847 62.4956C60.6421 63.4067 59.1079 64.1843 57.6572 64.9097C55.3282 66.0742 53.2026 68.072 50.8261 69.0226C48.8714 69.8045 47.1559 71.2065 45.2826 72.1699C44.2552 72.6983 42.8935 74.2443 41.7419 74.2443" stroke="#32CD32" stroke-width="3" stroke-linecap="round"/>
<path d="M16.6343 46.2402C15.1528 48.1258 14.6498 50.4933 13.4155 52.499C12.1405 54.571 11.0304 56.7592 9.91058 58.9188C9.04288 60.5922 8.412 62.4866 7.80046 64.2656C7.3435 65.595 7.27933 67.0669 6.51294 68.2713C5.48248 69.8905 5.17193 72.0671 4.25976 73.7611C4.01926 74.2078 1.93869 78.1359 2.56094 78.5715C3.66015 79.3409 6.62885 78.0445 7.80046 77.8562C9.19664 77.6318 10.712 77.7846 12.128 77.7846C15.4425 77.7846 18.6849 76.8926 21.999 76.819C23.53 76.785 25.5771 76.4413 27.0776 76.1037C29.0491 75.6601 30.9993 75.3699 32.8715 74.6374C34.7499 73.9023 36.9305 74.557 38.8442 73.6002" stroke="#32CD32" stroke-width="3" stroke-linecap="round"/>
<path d="M20.1758 44.9535C21.8711 44.9535 23.4695 44.7874 25.004 45.5973C26.2155 46.2367 26.8399 47.5573 27.9009 48.2439C29.6664 49.3862 29.5189 52.8606 28.9381 54.5384C28.5605 55.6294 29.3606 55.1959 30.4045 54.8603C31.4304 54.5305 32.4383 54.61 33.516 54.61C36.1475 54.61 37.985 54.4955 39.9715 56.0405C41.0646 56.8907 41.42 58.9187 41.42 60.2787C41.42 61.2807 41.0934 64.4116 39.9715 64.9102C38.9344 65.3711 38.036 65.8756 39.292 66.3586C40.0372 66.6453 40.5599 66.614 41.259 67.0024C42.6224 67.7598 43.6731 69.1093 43.6731 70.704" stroke="#32CD32" stroke-width="3" stroke-linecap="round"/>
<path d="M8.26562 68.4492C10.743 69.5503 10.2792 70.715 10.8407 73.2417C11.2702 75.1747 11.7937 74.8953 9.87503 76.1744" stroke="#32CD32" stroke-width="3" stroke-linecap="round"/>
<path d="M8.26326 71.6684C8.26326 72.2939 8.09067 74.6836 7.44067 74.8693C6.77997 75.0581 5.54012 76.8549 6.01009 76.3536C6.59257 75.7322 6.80703 73.9565 6.99362 73.1169C7.23332 72.0382 8.26189 71.3506 8.58514 70.3809" stroke="#32CD32" stroke-width="3" stroke-linecap="round"/>
<path d="M34.6602 49.1369C37.3722 46.3427 40.5811 44.0175 43.8517 41.8767C45.157 41.0223 46.4689 40.2713 47.8215 39.4984C50.0675 38.215 51.8189 36.2375 53.9552 34.849C56.9484 32.9034 59.7706 30.7167 62.6818 28.7153C64.7739 27.277 66.9932 26.0724 68.9942 24.4593C70.4587 23.2788 73.3896 21.5698 74.2516 19.8457" stroke="#32CD32" stroke-width="3" stroke-linecap="round"/>
<path d="M45.9258 58.7939C49.8736 56.6226 53.2985 53.6043 56.7267 50.729C60.024 47.9635 63.5853 46.2907 67.2057 44.0589C68.8071 43.0718 70.596 42.6638 72.1949 41.7163C74.0027 40.645 75.5022 39.1965 77.2735 38.0504C79.3714 36.6929 82.1868 35.4639 83.5859 33.3652" stroke="#32CD32" stroke-width="3" stroke-linecap="round"/>
</svg>
